<?xml version="1.0" encoding="UTF-8"?>
<svg version="1.1" xmlns="http://www.w3.org/2000/svg" width="1024" height="1024">
<path d="M0 0 C337.92 0 675.84 0 1024 0 C1024 337.92 1024 675.84 1024 1024 C686.08 1024 348.16 1024 0 1024 C0 686.08 0 348.16 0 0 Z " fill="#CECFCE" transform="translate(0,0)"/>
<path d="M0 0 C1.92079721 -0.00135291 3.84159408 -0.00329859 5.76239014 -0.00579834 C9.76268821 -0.00872307 13.76289612 -0.00454031 17.76318359 0.00488281 C22.82651123 0.01624444 27.88962594 0.00972155 32.95294571 -0.00226212 C36.91354907 -0.00957977 40.87410414 -0.00714753 44.83470917 -0.00200653 C46.69854509 -0.00069559 48.56238577 -0.00222518 50.42621613 -0.00696564 C62.09175517 -0.03012801 73.53896416 0.56063665 85.14004517 1.80732727 C90.33379141 2.36409544 95.51468893 2.57472803 100.734375 2.703125 C107.16689284 2.92507883 112.67004759 3.63158638 118.81640625 5.625 C128.21399846 7.78053164 138.7652721 6.62212617 148.09375 4.703125 C150.609375 4.265625 150.609375 4.265625 155.609375 4.265625 C155.609375 14.495625 155.609375 24.725625 155.609375 35.265625 C149.97511667 35.265625 149.97511667 35.265625 146.53515625 33.17578125 C145.78983643 32.72509277 145.0445166 32.2744043 144.27661133 31.81005859 C143.11101685 31.07650146 143.11101685 31.07650146 141.921875 30.328125 C141.11967529 29.83393066 140.31747559 29.33973633 139.4909668 28.83056641 C133.94199946 25.33038808 129.36802869 21.51894774 124.66796875 16.94921875 C121.63803121 14.47122429 119.4604343 14.18190632 115.609375 14.265625 C115.609375 21.71581394 119.55209064 26.09270151 124.609375 31.265625 C132.14547481 38.13246661 140.33704521 43.04375569 149.609375 47.265625 C151.61131262 48.26174035 153.61155296 49.2612809 155.609375 50.265625 C155.94069578 58.00161554 156.25480535 65.73809782 156.54711437 73.47564983 C156.68339159 77.06872656 156.82553004 80.66136921 156.98120117 84.25366211 C157.13128721 87.72210669 157.26579651 91.19084125 157.38964272 94.66031837 C157.46378804 96.62437868 157.55394587 98.58781334 157.64433289 100.55119324 C157.68460098 101.7520607 157.72486908 102.95292816 157.76635742 104.19018555 C157.80854904 105.24497604 157.85074066 106.29976654 157.89421082 107.38652039 C157.31675439 113.22341788 153.5326728 116.74011292 149.2578125 120.35546875 C145.96589662 122.72972667 142.55048057 124.70978373 138.984375 126.640625 C138.35112305 126.98649658 137.71787109 127.33236816 137.06542969 127.6887207 C133.25734915 129.67478882 129.87858101 130.80586435 125.609375 131.265625 C125.90585937 130.5334375 126.20234375 129.80125 126.5078125 129.046875 C133.35608021 111.75621327 132.46326105 92.28648276 125.32421875 75.1875 C118.95156843 62.47770159 108.23599782 51.94215197 94.87109375 46.9921875 C83.4354813 43.31857107 69.44409666 43.6991378 58.51953125 48.6328125 C52.91118556 51.77950847 47.41285539 55.35782906 42.9296875 60.0078125 C41.609375 61.265625 41.609375 61.265625 39.609375 61.265625 C39.33867188 61.82378906 39.06796875 62.38195312 38.7890625 62.95703125 C37.98510866 64.53033165 37.13353982 66.07998293 36.2421875 67.60546875 C28.36490517 81.17643443 23.6839614 97.75404616 27.515625 113.3828125 C31.84379334 128.86454836 39.81040044 141.13038119 53.60546875 149.66015625 C72.98603956 160.01830268 93.67324414 160.97005663 115.234375 160.828125 C118.66648553 160.8114713 122.09775258 160.80243647 125.52987671 160.81785583 C127.63894952 160.82707317 129.74820603 160.81818316 131.85708618 160.78822327 C138.87131125 160.8147564 138.87131125 160.8147564 142.72387695 163.16821289 C145.61498078 166.38425238 145.61498078 166.38425238 145.609375 169.265625 C144.38671875 171.3359375 144.38671875 171.3359375 142.546875 173.390625 C141.95777344 174.07382812 141.36867188 174.75703125 140.76171875 175.4609375 C135.29072273 180.04823362 128.7460138 179.55154622 121.98922825 179.52568722 C120.37634604 179.53139572 120.37634604 179.53139572 118.73088035 179.53721955 C115.10915856 179.54756846 111.48759254 179.54362304 107.86585999 179.53977966 C105.25054551 179.54423025 102.63523238 179.5495437 100.01992124 179.55564839 C94.32405364 179.56749806 88.62821807 179.57186105 82.93233871 179.57132721 C74.46239671 179.57053426 65.99249517 179.58108079 57.52256398 179.59374278 C40.63466631 179.61848722 23.74677846 179.62726579 6.85886516 179.63227927 C5.98424061 179.63254044 5.10961607 179.63280162 4.20848775 179.63307071 C2.89394943 179.63346112 2.89394943 179.63346112 1.55285478 179.63385942 C-8.15500206 179.63694068 -17.86285618 179.64344498 -27.57071114 179.6500721 C-56.88405061 179.66971902 -86.19738713 179.68612446 -115.5107336 179.68894863 C-116.44839438 179.68904269 -117.38605516 179.68913675 -118.35212991 179.68923366 C-122.15214167 179.68961215 -125.95215344 179.68997615 -129.7521652 179.69033664 C-132.61236469 179.69060836 -135.47256418 179.69088504 -138.33276367 179.69116211 C-139.27788131 179.69125013 -140.22299894 179.69133815 -141.19675651 179.69142884 C-170.90390533 179.69433536 -200.61098913 179.71644111 -230.31811523 179.75268555 C-263.68179418 179.79339001 -297.04542883 179.81710703 -330.40913397 179.81740814 C-333.96499702 179.81750497 -337.52086006 179.81767169 -341.0767231 179.81788826 C-341.95228954 179.81793237 -342.82785598 179.81797649 -343.72995474 179.81802194 C-357.83383979 179.81914285 -371.93765981 179.83656666 -386.0415239 179.85970758 C-400.20932215 179.88252267 -414.37703231 179.88679306 -428.54484218 179.87215828 C-436.96629133 179.86399246 -445.38746344 179.86974835 -453.80887913 179.89533913 C-460.09004332 179.91288951 -466.37091609 179.90443649 -472.65207119 179.88569403 C-475.19843588 179.88217986 -477.74482893 179.88718977 -480.2911564 179.90139847 C-483.74280865 179.91942375 -487.1930297 179.90686602 -490.64463711 179.88645077 C-491.64168794 179.89901414 -492.63873877 179.91157751 -493.66600326 179.9245216 C-500.20740021 179.84125401 -503.46183967 178.61462009 -508.390625 174.265625 C-510.63335322 171.46221472 -510.39396352 170.3140336 -510.140625 166.640625 C-509.390625 163.265625 -509.390625 163.265625 -507.390625 161.265625 C-505.10006714 160.9871521 -505.10006714 160.9871521 -502.20654297 160.94677734 C-501.12557343 160.92690765 -500.04460388 160.90703796 -498.93087769 160.88656616 C-497.76001617 160.87501495 -496.58915466 160.86346375 -495.3828125 160.8515625 C-494.18705597 160.83219635 -492.99129944 160.8128302 -491.75930786 160.7928772 C-487.92815352 160.73294556 -484.09696935 160.6866414 -480.265625 160.640625 C-477.67316375 160.60245776 -475.08071534 160.56340679 -472.48828125 160.5234375 C-466.12250963 160.4272329 -459.75666105 160.34222539 -453.390625 160.265625 C-454.33744141 159.81251953 -455.28425781 159.35941406 -456.25976562 158.89257812 C-457.5223222 158.27772715 -458.78468156 157.6624711 -460.046875 157.046875 C-460.66852539 156.75071289 -461.29017578 156.45455078 -461.93066406 156.14941406 C-470.3031784 152.04006976 -478.22398342 145.10138031 -483.390625 137.265625 C-483.74832816 135.93862186 -484.08462942 134.60549648 -484.390625 133.265625 C-485.28370361 133.27609863 -486.17678223 133.28657227 -487.09692383 133.29736328 C-490.41237977 133.33146092 -493.72764921 133.35653137 -497.04321289 133.37548828 C-498.47781312 133.385542 -499.91239289 133.39918694 -501.34692383 133.41650391 C-503.40971938 133.44078049 -505.47224385 133.45211419 -507.53515625 133.4609375 C-508.77628174 133.47141113 -510.01740723 133.48188477 -511.29614258 133.49267578 C-514.390625 133.265625 -514.390625 133.265625 -517.390625 131.265625 C-518.98567267 127.48788052 -519.76393719 124.34757959 -519.390625 120.265625 C-514.33549713 110.43972021 -506.53265572 103.83915204 -496.58984375 99.40625 C-494.39750085 98.26919116 -493.02027368 97.1009575 -491.390625 95.265625 C-490.42382812 95.88050781 -489.45703125 96.49539063 -488.4609375 97.12890625 C-476.15978902 104.82227197 -465.64363827 109.49816026 -450.96484375 106.18359375 C-448.24547909 105.31023879 -448.24547909 105.31023879 -445.47265625 103.50390625 C-432.56823268 95.94538887 -419.74018801 98.40703935 -405.390625 100.265625 C-404.48747559 100.37229492 -403.58432617 100.47896484 -402.65380859 100.58886719 C-381.49748916 103.13863782 -363.58673602 110.29741797 -347.390625 124.265625 C-346.64941406 124.86117187 -345.90820312 125.45671875 -345.14453125 126.0703125 C-343.50131948 127.39942947 -341.93567824 128.82357531 -340.390625 130.265625 C-340.390625 131.255625 -340.390625 132.245625 -340.390625 133.265625 C-345.14119083 133.29040923 -349.89171871 133.30852489 -354.64233398 133.32055664 C-356.25724951 133.32557442 -357.87216052 133.33239011 -359.48706055 133.34106445 C-361.81299965 133.35324214 -364.1388785 133.35887895 -366.46484375 133.36328125 C-367.54169685 133.37102318 -367.54169685 133.37102318 -368.64030457 133.37892151 C-372.35352732 133.37933376 -375.78053622 133.15506716 -379.390625 132.265625 C-379.7 132.884375 -380.009375 133.503125 -380.328125 134.140625 C-381.015625 135.515625 -381.703125 136.890625 -382.390625 138.265625 C-383.050625 138.265625 -383.710625 138.265625 -384.390625 138.265625 C-384.6690625 138.85730469 -384.9475 139.44898438 -385.234375 140.05859375 C-390.34379625 149.81137417 -401.04100857 157.02381907 -411.390625 160.265625 C-412.710625 160.265625 -414.030625 160.265625 -415.390625 160.265625 C-415.390625 160.925625 -415.390625 161.585625 -415.390625 162.265625 C-414.64755096 162.10485977 -413.90447693 161.94409454 -413.1388855 161.77845764 C-407.89479449 161.06096721 -402.70596031 161.08726788 -397.41845703 161.06030273 C-396.21789169 161.05040314 -395.01732635 161.04050354 -393.78038025 161.03030396 C-390.50192688 161.00419756 -387.22347828 160.98230217 -383.94498301 160.96230197 C-380.51366014 160.9403661 -377.08238048 160.91301476 -373.65109253 160.88624573 C-367.15956923 160.83642126 -360.66802182 160.79144462 -354.17645156 160.74822336 C-346.78343789 160.69876317 -339.39046757 160.64387774 -331.99749589 160.58854377 C-316.79524605 160.47488111 -301.59295531 160.36800813 -286.390625 160.265625 C-287.35778946 159.78995087 -288.32495392 159.31427673 -289.32142639 158.82418823 C-290.59985483 158.19136964 -291.87820673 157.5583964 -293.15649414 156.92529297 C-293.79284035 156.61283127 -294.42918655 156.30036957 -295.08481598 155.97843933 C-304.3779464 151.36482313 -311.92327357 144.93372203 -317.59765625 136.17578125 C-319.40155985 133.99223176 -319.40155985 133.99223176 -322.7421875 132.87109375 C-326.79652456 131.08701181 -329.14445357 128.81293881 -331.953125 125.515625 C-332.42999756 124.97848877 -332.90687012 124.44135254 -333.39819336 123.88793945 C-335.82881866 121.13693807 -338.15738418 118.31627904 -340.453125 115.453125 C-351.63399281 102.28597122 -370.85798706 96.38652441 -387.390625 94.265625 C-392.16541826 93.99657878 -396.9218494 93.98550673 -401.703125 94.015625 C-402.91935547 94.00789062 -404.13558594 94.00015625 -405.38867188 93.9921875 C-413.91013668 94.01028939 -421.99288 94.8516409 -430.390625 96.265625 C-429.400625 94.780625 -429.400625 94.780625 -428.390625 93.265625 C-427.730625 93.265625 -427.070625 93.265625 -426.390625 93.265625 C-426.16375 92.71519531 -425.936875 92.16476562 -425.703125 91.59765625 C-424.00294506 88.57680082 -421.8090416 86.43681136 -419.390625 83.953125 C-413.5700786 77.80707485 -409.05041122 71.08958167 -404.50878906 63.97412109 C-402.46517833 60.85159098 -400.21471342 57.87528937 -397.9609375 54.90234375 C-395.58261881 50.90889819 -394.0318883 46.60444645 -392.390625 42.265625 C-391.71112793 42.2562793 -391.03163086 42.24693359 -390.33154297 42.23730469 C-372.73813246 41.94014823 -355.43971626 40.62525551 -337.96240234 38.63769531 C-337.17114456 38.54829178 -336.37988678 38.45888824 -335.56465149 38.36677551 C-334.0837482 38.19816995 -332.60322998 38.02612991 -331.12321472 37.84989929 C-327.18943919 37.39699136 -323.34972314 37.18275029 -319.390625 37.265625 C-328.19317994 56.69049383 -358.16634579 66.14549092 -376.40478516 73.15478516 C-378.43630044 73.91058193 -380.47836813 74.63847363 -382.52880859 75.34130859 C-383.5183252 75.6811377 -384.5078418 76.0209668 -385.52734375 76.37109375 C-386.41510498 76.6652417 -387.30286621 76.95938965 -388.2175293 77.26245117 C-390.71494449 78.1855757 -390.71494449 78.1855757 -392.390625 81.265625 C-361.34115896 82.70113114 -335.08959418 67.82439278 -311.390625 49.265625 C-294.38595998 36.0802142 -279.15725457 25.72799053 -257.98291016 20.86279297 C-255.36693009 20.26016656 -252.76022346 19.62494898 -250.15234375 18.98828125 C-234.09220589 15.18213807 -217.79505974 12.97891454 -201.390625 11.265625 C-200.53883163 11.17582367 -199.68703827 11.08602234 -198.80943298 10.99349976 C-191.26871479 10.27365134 -183.8065788 10.16776544 -176.23515129 10.25159073 C-174.10985425 10.27405168 -171.98465177 10.28784201 -169.85926819 10.29928589 C-163.8258904 10.33247644 -157.79267062 10.37440342 -151.75952148 10.43701172 C-148.04336003 10.47496401 -144.32735175 10.4977688 -140.61102486 10.51131821 C-139.21057389 10.51928443 -137.81014145 10.53276481 -136.40980339 10.55224991 C-125.53398508 10.70107812 -116.82803827 9.57029221 -107.10791016 4.60424805 C-100.43636105 1.45714202 -94.17615817 1.66703235 -86.9140625 1.84765625 C-85.53563823 1.86212255 -84.15718473 1.87400474 -82.77871704 1.88346863 C-79.17136345 1.9136416 -75.56509313 1.97211207 -71.95825195 2.03887939 C-66.2108002 2.14175245 -60.46294534 2.20588297 -54.71486282 2.26068687 C-52.74052488 2.28424393 -50.76639741 2.32378444 -48.79232788 2.3639679 C-42.15792794 2.45080419 -35.77390795 2.15728526 -29.21044922 1.28100586 C-19.47102997 -0.00516244 -9.81084331 -0.02482656 0 0 Z " fill="#060A0C" transform="translate(697.390625,424.734375)"/>
<path d="M0 0 C11.40121463 8.0790064 20.3621941 19.54266755 23.44921875 33.40234375 C23.67906389 35.29155867 23.83746221 37.18998263 23.94921875 39.08984375 C23.99014648 39.73791992 24.03107422 40.38599609 24.07324219 41.05371094 C24.84617143 55.13890904 23.17041625 67.76663343 15.94921875 80.08984375 C17.05845703 80.03223877 18.16769531 79.97463379 19.31054688 79.9152832 C23.4543973 79.71510309 27.59782945 79.58954249 31.74511719 79.4855957 C33.53426105 79.43051282 35.32291488 79.35561303 37.11035156 79.26000977 C51.99725506 78.48413157 51.99725506 78.48413157 56.80371094 82.43798828 C58.8073389 85.23458301 60.34370043 88.05446035 61.94921875 91.08984375 C69.0246234 98.78081178 78.19720493 104.42394074 87.94921875 108.08984375 C87.94921875 108.41984375 87.94921875 108.74984375 87.94921875 109.08984375 C75.29251631 109.13621473 62.63583413 109.17173723 49.97906399 109.19346809 C44.10181614 109.20389859 38.22462647 109.21804451 32.34741211 109.24072266 C26.67400097 109.26247702 21.00064575 109.2744179 15.32719612 109.27959824 C13.16429832 109.28328932 11.00140354 109.29049706 8.83852959 109.30130386 C5.80561621 109.3158531 2.77293298 109.31782024 -0.26000977 109.31689453 C-1.15121521 109.32408508 -2.04242065 109.33127563 -2.96063232 109.33868408 C-8.06434666 109.32186363 -12.20508055 108.6929092 -17.05078125 107.08984375 C-19.23415813 106.80170327 -19.23415813 106.80170327 -21.21484375 106.81640625 C-21.93800781 106.79876221 -22.66117187 106.78111816 -23.40625 106.76293945 C-24.15519531 106.74706787 -24.90414062 106.73119629 -25.67578125 106.71484375 C-43.47907466 105.99185812 -56.10243958 99.14980926 -68.12890625 86.3671875 C-78.21579099 75.24419734 -83.13805292 59.65305464 -82.4609375 44.65234375 C-80.47753649 27.42508922 -74.80302065 13.4845564 -61.05078125 2.08984375 C-42.37005956 -12.20696077 -19.61783473 -12.12972003 0 0 Z " fill="#EAEDEE" transform="translate(477.05078125,476.91015625)"/>
<path d="M0 0 C1.19327408 -0.00309174 2.38654816 -0.00618347 3.61598206 -0.0093689 C5.54461342 -0.00642319 5.54461342 -0.00642319 7.51220703 -0.00341797 C8.87422213 -0.00460358 10.23623697 -0.00612657 11.59825134 -0.00796509 C15.9888611 -0.01171533 20.37941921 -0.00411969 24.77001953 0.00439453 C26.28062943 0.00666599 27.79123937 0.00890386 29.30184937 0.0111084 C39.49971105 0.02780351 49.69732291 0.06975235 59.89501953 0.12939453 C61.00899109 0.13563843 62.12296265 0.14188232 63.27069092 0.14831543 C82.21667123 0.26722722 100.98237501 0.96158425 119.83251953 2.94189453 C120.95371689 3.05712463 120.95371689 3.05712463 122.0975647 3.17468262 C180.08174473 9.29487123 235.09818732 39.16646262 285.89501953 66.12939453 C283.10111517 67.06069599 281.39163526 67.26049917 278.50292969 67.2746582 C277.17607651 67.28422798 277.17607651 67.28422798 275.82241821 67.29399109 C274.86926727 67.29510391 273.91611633 67.29621674 272.93408203 67.29736328 C271.46000381 67.30235588 271.46000381 67.30235588 269.95614624 67.30744934 C267.87653064 67.31251332 265.79690691 67.31485783 263.71728516 67.31469727 C260.53941408 67.3168812 257.36189156 67.33503559 254.18408203 67.35400391 C252.16324988 67.35693845 250.14241609 67.35892284 248.12158203 67.35986328 C247.17247955 67.3670488 246.22337708 67.37423431 245.24551392 67.38163757 C238.82898644 67.3594781 234.89388269 66.91561267 229.95751953 62.50439453 C200.47892221 36.6873493 152.47472613 27.09608889 114.89501953 21.12939453 C114.90662109 21.88736328 114.91822266 22.64533203 114.93017578 23.42626953 C115.03770212 37.00531041 114.42517872 50.56299955 113.89501953 64.12939453 C108.28501953 64.12939453 102.67501953 64.12939453 96.89501953 64.12939453 C96.56501953 49.27939453 96.23501953 34.42939453 95.89501953 19.12939453 C52.58066386 21.29511231 21.31062643 32.79566703 -13.10498047 59.12939453 C-14.49136719 60.18513672 -14.49136719 60.18513672 -15.90576172 61.26220703 C-18.2963558 63.11825197 -18.2963558 63.11825197 -20.10498047 66.12939453 C-23.0859375 66.4699707 -23.0859375 66.4699707 -26.86279297 66.42236328 C-27.52584442 66.41811844 -28.18889587 66.4138736 -28.87203979 66.40950012 C-30.99176488 66.39269425 -33.11054235 66.35504154 -35.22998047 66.31689453 C-36.66616466 66.30185002 -38.10236375 66.28816121 -39.53857422 66.27587891 C-43.0610181 66.24278543 -46.58290683 66.19099133 -50.10498047 66.12939453 C-48.56248603 61.93239485 -47.18661738 59.98595939 -43.60498047 57.25439453 C-42.69748047 56.55958984 -41.78998047 55.86478516 -40.85498047 55.14892578 C-37.63122462 52.78148008 -34.37781066 50.47105029 -31.07763672 48.21142578 C-28.80220921 46.61772951 -26.57260627 44.99462399 -24.35107422 43.32861328 C-14.32582477 35.85950522 -3.96705078 29.26219165 6.83081055 22.97900391 C7.86391357 22.37507813 8.8970166 21.77115234 9.96142578 21.14892578 C10.88898682 20.61372314 11.81654785 20.07852051 12.7722168 19.52709961 C15.01684364 18.30333298 15.01684364 18.30333298 15.89501953 16.12939453 C-19.70282865 19.29692655 -19.70282865 19.29692655 -55.10498047 24.12939453 C-56.00152344 24.273125 -56.89806641 24.41685547 -57.82177734 24.56494141 C-86.05554997 29.25975264 -112.79694935 39.44602856 -138.66748047 51.44189453 C-139.29090332 51.73064453 -139.91432617 52.01939453 -140.55664062 52.31689453 C-143.25295874 53.60843894 -145.70786232 54.82120101 -148.08056641 56.66259766 C-156.60861741 62.94013892 -166.09296325 62.0226726 -176.22998047 62.00439453 C-178.06334231 62.02254663 -179.89667986 62.04335715 -181.72998047 62.06689453 C-186.18862406 62.11840831 -190.64605588 62.133849 -195.10498047 62.12939453 C-192.40618356 59.22247225 -189.93660929 57.29471512 -186.39428711 55.52319336 C-185.46133316 55.05202591 -184.52837921 54.58085846 -183.56715393 54.09541321 C-182.05640541 53.34846443 -182.05640541 53.34846443 -180.51513672 52.58642578 C-178.93363075 51.79458138 -178.93363075 51.79458138 -177.32017517 50.98674011 C-175.08020448 49.86758481 -172.83824939 48.75239381 -170.59448242 47.64086914 C-167.23398109 45.97486296 -163.88099595 44.2944762 -160.52880859 42.61181641 C-142.58285095 33.64619538 -124.50622309 25.19416095 -105.41748047 18.94189453 C-104.79455109 18.73594666 -104.1716217 18.52999878 -103.52981567 18.31781006 C-91.53332944 14.36827961 -79.40213618 11.28001442 -67.03173828 8.73339844 C-64.31876581 8.17351406 -61.61448953 7.58263406 -58.90966797 6.98486328 C-44.51341699 3.91637318 -29.94329775 2.68190509 -15.29858398 1.45483398 C-12.15646783 1.17668614 -12.15646783 1.17668614 -9.28694153 0.61714172 C-6.13412557 0.13386204 -3.18726076 0.00244173 0 0 Z " fill="#060A0B" transform="translate(532.10498046875,353.87060546875)"/>
<path d="M0 0 C5.84802101 0.00581614 11.6959973 0.00232412 17.54401684 -0.00357246 C22.09316859 -0.00717033 26.64230951 -0.00604513 31.19146156 -0.00344467 C33.35207436 -0.00277933 35.51268815 -0.00359004 37.67329979 -0.00592422 C40.65494843 -0.00845059 43.63652113 -0.00461586 46.61816406 0.00097656 C47.50145386 -0.00104767 48.38474365 -0.0030719 49.2947998 -0.00515747 C52.68390388 0.00667813 55.48136977 0.05116297 58.71899414 1.13037109 C58.71899414 2.45037109 58.71899414 3.77037109 58.71899414 5.13037109 C40.12333413 8.37429151 21.57559219 11.31344944 2.78149414 13.13037109 C-9.63204367 14.34433518 -21.97883099 15.79538484 -34.30886841 17.6887207 C-35.92523475 17.93662194 -37.54230645 18.17997785 -39.16012573 18.41821289 C-53.49405816 20.54481366 -65.97642856 24.56285358 -78.73413086 31.57958984 C-87.37829448 35.35903143 -96.22834537 35.41325624 -105.53344727 35.35742188 C-107.46684464 35.35785995 -107.46684464 35.35785995 -109.43930054 35.35830688 C-112.94278602 35.35887626 -116.4461321 35.34718988 -119.94958544 35.33315897 C-123.62241931 35.32058177 -127.29525704 35.31947564 -130.96810913 35.31710815 C-137.90933622 35.31091379 -144.85049965 35.2945309 -151.79169881 35.27440917 C-159.69987284 35.25198623 -167.60805004 35.24104072 -175.51624799 35.2310183 C-191.77120443 35.21016266 -208.026097 35.17502681 -224.28100586 35.13037109 C-215.57668691 25.95218268 -201.04880322 21.81387846 -189.28100586 18.13037109 C-188.49516113 17.8804541 -187.70931641 17.63053711 -186.8996582 17.37304688 C-156.27309729 7.74999715 -122.19815265 1.96510026 -90.02099609 1.27148438 C-85.63364607 1.16898228 -81.24803067 1.03464444 -76.86181641 0.89160156 C-51.24089381 0.08482862 -25.63217173 -0.02583069 0 0 Z " fill="#131A1A" transform="translate(420.281005859375,422.86962890625)"/>
<path d="M0 0 C9.97202223 7.39748981 17.03308405 16.23937808 19.51953125 28.55859375 C20.83931196 41.85663741 17.74799113 54.69389694 10.05078125 65.8203125 C3.42303374 73.34415852 -3.83191365 77.94139533 -13.8046875 78.8671875 C-24.31778561 79.24224938 -32.39804175 76.94012747 -40.60546875 70.3046875 C-49.77523748 61.76534037 -54.96845045 50.73069072 -55.59765625 38.23046875 C-55.94598671 25.61316535 -52.34978534 15.98625201 -43.7578125 6.73828125 C-31.65592431 -4.84465805 -15.19640569 -8.83066724 0 0 Z " fill="#080D0E" transform="translate(466.48046875,489.44140625)"/>
<path d="M0 0 C1.27158367 1.05791592 2.52205624 2.14172872 3.75 3.25 C4.3790625 3.79914063 5.008125 4.34828125 5.65625 4.9140625 C13.16368711 11.88070965 16.58103708 20.56620042 17.0859375 30.765625 C17.36995016 45.52193479 15.0593881 56.9951301 4.75 68.25 C-4.49449923 76.05542321 -14.22246945 77.43423595 -25.95214844 76.57421875 C-35.18390986 75.27164978 -43.00458614 69.68146413 -48.70703125 62.5078125 C-50.95424611 59.2194829 -52.77048042 55.9455401 -54.25 52.25 C-54.76949219 51.03957031 -55.28898438 49.82914063 -55.82421875 48.58203125 C-59.13930146 39.62416648 -58.672618 27.71789756 -55.4375 18.8125 C-50.50705322 8.81113788 -41.08254396 -1.35860962 -30.5 -5.0625 C-20.14890713 -7.13670743 -8.74960392 -6.30510957 0 0 Z " fill="#030708" transform="translate(796.25,490.75)"/>
<path d="M0 0 C2.32469535 0.03094952 4.64940302 0.06080727 6.97411346 0.09059906 C10.59584691 0.13778228 14.21747214 0.19010568 17.83907127 0.24664879 C19.76265772 0.27609577 21.68629479 0.30217864 23.60993195 0.32810211 C46.01975343 0.70902222 46.01975343 0.70902222 50.91606903 3.59383392 C50.91606903 4.91383392 50.91606903 6.23383392 50.91606903 7.59383392 C50.25606903 7.59383392 49.59606903 7.59383392 48.91606903 7.59383392 C48.91606903 8.25383392 48.91606903 8.91383392 48.91606903 9.59383392 C36.78279737 19.77012628 6.74888429 15.93094066 -8.35346222 16.17195892 C-9.51051414 16.19195827 -10.66756607 16.21195763 -11.85968018 16.23256302 C-38.2870466 16.68563705 -64.71382207 16.74793009 -91.14447784 16.72420502 C-97.62650048 16.71842358 -104.10848243 16.7218652 -110.59050369 16.72777748 C-115.7144475 16.73142392 -120.83838193 16.73022736 -125.96232605 16.72764969 C-128.35233567 16.72699606 -130.74234621 16.72775202 -133.13235474 16.73012924 C-202.2985875 16.7840629 -202.2985875 16.7840629 -216.08393097 7.59383392 C-216.08393097 6.93383392 -216.08393097 6.27383392 -216.08393097 5.59383392 C-214.92632165 4.93190306 -213.75709267 4.29029246 -212.58393097 3.65633392 C-211.93424347 3.29668549 -211.28455597 2.93703705 -210.61518097 2.56649017 C-202.73761639 -0.46053696 -193.49613406 0.37570569 -185.19330597 0.27742767 C-183.68767691 0.2566078 -182.18205156 0.23551776 -180.67642975 0.21417999 C-176.5868986 0.15792688 -172.49731335 0.10844549 -168.40766907 0.061203 C-165.81705777 0.0311381 -163.22646489 -0.00023868 -160.63587189 -0.03183746 C-107.09171256 -0.67719193 -53.54360363 -0.71559295 0 0 Z " fill="#4A4C4C" transform="translate(602.0839309692383,628.4061660766602)"/>
<path d="M0 0 C0.66 0.33 1.32 0.66 2 1 C1.67 1.66 1.34 2.32 1 3 C1.70237793 2.85997559 2.40475586 2.71995117 3.12841797 2.57568359 C21.79538791 -0.87348207 41.81798341 -0.7005093 60 5 C61.19625 5.37382813 62.3925 5.74765625 63.625 6.1328125 C70.94481523 8.69135903 76.96398214 12.1570309 83 17 C83.75925781 17.60714844 84.51851563 18.21429687 85.30078125 18.83984375 C90.49774897 23.22899265 94.70862983 28.10377941 98.859375 33.484375 C101.71692558 36.84251839 104.4118351 39.40894317 108.58203125 40.9609375 C111.66718419 42.28670597 112.74838924 43.90772115 114.6875 46.625 C121.64421141 55.62856504 129.87371498 60.77683583 139.99609375 65.5546875 C143 67 143 67 146 69 C102.44 69.33 58.88 69.66 14 70 C14 69.34 14 68.68 14 68 C15.21623047 67.5978125 15.21623047 67.5978125 16.45703125 67.1875 C27.92253813 63.12985845 36.6769829 57.7951739 43.66015625 47.6875 C44.10230469 47.130625 44.54445313 46.57375 45 46 C45.66 46 46.32 46 47 46 C47.309375 45.38125 47.61875 44.7625 47.9375 44.125 C48.625 42.75 49.3125 41.375 50 40 C69.305 40.495 69.305 40.495 89 41 C80.18534628 26.30891047 61.49670829 17.24642543 45.41796875 12.80078125 C33.5194147 10.01312002 21.60962147 8.634523 9.4375 7.625 C8.24825928 7.51591309 7.05901855 7.40682617 5.83374023 7.29443359 C-1.28910507 6.76912187 -6.39736565 7.22365215 -13 10 C-12.34 9.01 -11.68 8.02 -11 7 C-10.01 7 -9.02 7 -8 7 C-8 6.34 -8 5.68 -8 5 C-7.01 5 -6.02 5 -5 5 C-4.67 4.34 -4.34 3.68 -4 3 C-2.69084721 1.96854629 -1.35917857 0.96457834 0 0 Z " fill="#EBEEEF" transform="translate(268,517)"/>
<path d="M0 0 C1.42816483 -0.01303012 2.8563133 -0.02798114 4.28443909 -0.04475403 C7.26977377 -0.07000468 10.25320679 -0.06502482 13.23852539 -0.03979492 C17.04819768 -0.01101236 20.8509923 -0.06836562 24.65969753 -0.14997387 C27.60710111 -0.20163463 30.55287394 -0.2016911 33.50062752 -0.1871891 C34.90362292 -0.18739443 36.30673007 -0.20453566 37.70928764 -0.23958397 C48.63058105 -0.47551978 48.63058105 -0.47551978 52.94290161 3.57821655 C54.95689141 6.35983326 56.65084617 9.20446089 58.37890625 12.16796875 C65.34506867 19.8663375 75.71759963 25.58364219 85.37890625 29.16796875 C85.37890625 29.49796875 85.37890625 29.82796875 85.37890625 30.16796875 C39.50890625 30.49796875 -6.36109375 30.82796875 -53.62109375 31.16796875 C-53.62109375 30.50796875 -53.62109375 29.84796875 -53.62109375 29.16796875 C-51.78998047 28.51054688 -51.78998047 28.51054688 -49.921875 27.83984375 C-38.27493292 23.4372522 -27.2888809 17.97313441 -20.32463074 7.15385437 C-15.03270536 -0.44367549 -8.64370821 -0.05833316 0 0 Z " fill="#E2E5E6" transform="translate(654.62109375,555.83203125)"/>
<path d="M0 0 C0.99 0.99 0.99 0.99 2 2 C-2.5488399 7.62753572 -8.50297721 9.71111398 -15.0625 12.4375 C-41.60607246 23.65331935 -57.20275225 36.36547268 -72.3203125 60.7265625 C-76.92892574 68.12349653 -81.8171194 74.80595896 -88 81 C-88.61101562 81.62261719 -89.22203125 82.24523437 -89.8515625 82.88671875 C-99.89751121 92.39830849 -112.67062041 97.90995307 -126 101 C-126.77988281 101.18836426 -127.55976562 101.37672852 -128.36328125 101.57080078 C-139.02721974 103.75398444 -149.92222666 103.21699615 -160.75 103.125 C-162.81509983 103.11495006 -164.88020439 103.10582778 -166.9453125 103.09765625 C-171.9636602 103.07580247 -176.98177691 103.04138347 -182 103 C-182 102.67 -182 102.34 -182 102 C-181.24605957 101.93006836 -180.49211914 101.86013672 -179.71533203 101.78808594 C-133.08308115 97.49048826 -133.08308115 97.49048826 -94 74 C-88.66175774 67.21337982 -84.6814706 59.84207448 -80.75 52.1875 C-75.74502838 42.69778938 -70.44890897 34.69075667 -63 27 C-62.4121875 26.32453125 -61.824375 25.6490625 -61.21875 24.953125 C-56.12197112 19.30669349 -49.57368124 15.67374872 -43 12 C-42.04738281 11.46246094 -41.09476563 10.92492187 -40.11328125 10.37109375 C-29.14604521 4.76301444 -12.41587908 -1.49394317 0 0 Z " fill="#D4D6D8" transform="translate(780,435)"/>
<path d="M0 0 C31.02 0 62.04 0 94 0 C92.68911829 5.24352685 91.57892973 8.84120672 87 12 C80.75877872 13.16279033 74.58367279 12.93055875 68.2578125 12.78125 C66.40553229 12.76631988 64.55322038 12.7549365 62.70089722 12.74694824 C57.83715838 12.71647426 52.97534594 12.63795383 48.11236572 12.54931641 C43.14548808 12.46732157 38.17829758 12.43090776 33.2109375 12.390625 C23.4731142 12.30495362 13.73671759 12.16850523 4 12 C3.3291288 10.3767313 2.66342971 8.75132422 2 7.125 C1.62875 6.22007812 1.2575 5.31515625 0.875 4.3828125 C0 2 0 2 0 0 Z " fill="#05080B" transform="translate(195,469)"/>
<path d="M0 0 C1.0809771 0.00068733 1.0809771 0.00068733 2.18379211 0.00138855 C3.69912372 0.00439722 5.21445261 0.01224181 6.72973633 0.0246582 C9.05365894 0.04299145 11.37718425 0.04516715 13.70117188 0.04492188 C15.17578471 0.04983482 16.65039484 0.05566216 18.125 0.0625 C19.16874031 0.06416924 19.16874031 0.06416924 20.23356628 0.06587219 C25.13106374 0.11435999 25.13106374 0.11435999 27.36328125 1.23046875 C27.03305449 6.59415187 24.06347385 9.1631297 20.42578125 12.73046875 C19.89404297 13.28605469 19.36230469 13.84164063 18.81445312 14.4140625 C11.45545361 21.74718042 4.37668427 24.76658106 -6.07310486 24.75091553 C-8.11581093 24.71843022 -10.15705729 24.66216181 -12.19921875 24.60546875 C-13.57093841 24.58891267 -14.94268673 24.57457742 -16.31445312 24.5625 C-23.14316647 24.47791669 -29.86641555 24.14315051 -36.63671875 23.23046875 C-29.79629355 10.7335381 -14.36103882 -0.14960617 0 0 Z " fill="#030507" transform="translate(571.63671875,398.76953125)"/>
<path d="M0 0 C2 1 2 1 2.86621094 3.14208984 C3.15270508 4.07230957 3.43919922 5.0025293 3.734375 5.9609375 C4.06179687 6.99089844 4.38921875 8.02085937 4.7265625 9.08203125 C5.39640753 11.237296 6.06319608 13.39351365 6.7265625 15.55078125 C9.97969287 25.75148849 14.74107967 34.49183861 20.8984375 43.22265625 C22 45 22 45 22 47 C20.98679688 47.24234375 19.97359375 47.4846875 18.9296875 47.734375 C17.57797167 48.07230396 16.22641757 48.41088024 14.875 48.75 C14.20984375 48.90726563 13.5446875 49.06453125 12.859375 49.2265625 C3.9306441 51.50251351 -1.00640099 56.50960148 -6 64 C-10.19859724 59.80140276 -8.26286701 47.23386734 -8.29516602 41.54858398 C-8.30661995 40.15362349 -8.32696626 38.7587045 -8.35668945 37.36401367 C-8.63961016 24.01932354 -6.73675078 11.78931386 0 0 Z " fill="#06090C" transform="translate(181,471)"/>
<path d="M0 0 C24.75 0 49.5 0 75 0 C74.02702418 4.86487908 73.3968079 7.03829953 70.16189575 10.57089233 C65.42075326 13.70499493 59.49704905 12.83943305 54.02734375 12.67578125 C52.65787342 12.65548561 51.28836757 12.63747128 49.9188385 12.62162781 C47.05583488 12.58058611 44.19481365 12.51465213 41.33276367 12.43041992 C37.67200094 12.32431086 34.01325974 12.27641391 30.35117245 12.24662495 C27.52552596 12.21789966 24.70103087 12.16037189 21.87603951 12.09401512 C19.87277816 12.05148054 17.86907972 12.03144928 15.86546326 12.01179504 C7.1149162 11.70977094 7.1149162 11.70977094 4.0696106 9.77108765 C1.28639455 6.67922377 0.82113639 4.10568195 0 0 Z " fill="#050608" transform="translate(201,489)"/>
<path d="M0 0 C15.18 0 30.36 0 46 0 C43.17475231 4.70874614 40.55807195 8.84331071 35.07519531 10.62573242 C31.31640158 11.30364193 27.560309 11.26846715 23.75 11.3125 C22.92886719 11.34150391 22.10773438 11.37050781 21.26171875 11.40039062 C15.05990728 11.46427616 11.24945137 10.37075767 6 7 C4.02 4.69 2.04 2.38 0 0 Z " fill="#030406" transform="translate(214,509)"/>
<path d="M0 0 C9.50767881 -0.322092 17.90256921 -0.23806859 27 3 C27 3.33 27 3.66 27 4 C25.79085937 4.18175781 24.58171875 4.36351562 23.3359375 4.55078125 C4.35032429 6.80893566 4.35032429 6.80893566 -13 14 C-13.66 13.67 -14.32 13.34 -15 13 C-14.01 12.67 -13.02 12.34 -12 12 C-12 10.68 -12 9.36 -12 8 C-12.66 7.34 -13.32 6.68 -14 6 C-5.09 5.01 -5.09 5.01 4 4 C4 3.34 4 2.68 4 2 C2.68 1.34 1.36 0.68 0 0 Z " fill="#1D2526" transform="translate(792,428)"/>
<path d="M0 0 C0.68318802 -0.00014603 1.36637604 -0.00029205 2.07026672 -0.0004425 C4.32658065 0.0002537 6.58281184 0.00803243 8.83911133 0.01586914 C10.40424047 0.01773436 11.96937019 0.01915777 13.53450012 0.02015686 C17.65267551 0.02397387 21.7708156 0.03379721 25.88897705 0.04486084 C30.09175133 0.05509248 34.29453131 0.05965824 38.49731445 0.06469727 C46.74277336 0.0754202 54.98820358 0.09248685 63.23364258 0.11352539 C61.23364258 3.11352539 61.23364258 3.11352539 59.25 3.56176758 C58.45440674 3.59431641 57.65881348 3.62686523 56.83911133 3.66040039 C55.96577148 3.70036133 55.09243164 3.74032227 54.19262695 3.78149414 C53.27803711 3.80856445 52.36344727 3.83563477 51.42114258 3.86352539 C50.06666016 3.92733398 50.06666016 3.92733398 48.68481445 3.99243164 C41.89778433 4.26171865 41.89778433 4.26171865 39.03442383 3.62280273 C34.90265591 2.87150672 30.81906435 2.9711447 26.62817383 2.98071289 C25.70775803 2.97975616 24.78734222 2.97879944 23.83903503 2.97781372 C21.90001354 2.97713495 19.96098975 2.97896809 18.02197266 2.9831543 C15.04625392 2.98852519 12.07068487 2.98318966 9.0949707 2.97680664 C7.21020474 2.97746712 5.32543888 2.97874764 3.44067383 2.98071289 C2.54798294 2.97868866 1.65529205 2.97666443 0.73554993 2.97457886 C-0.50132317 2.9793071 -0.50132317 2.9793071 -1.76318359 2.98413086 C-2.85308846 2.98532425 -2.85308846 2.98532425 -3.9650116 2.98654175 C-5.8689177 3.00513425 -5.8689177 3.00513425 -7.76635742 4.11352539 C-9.76595754 4.15351739 -11.76682984 4.15699338 -13.76635742 4.11352539 C-9.12728012 0.43425719 -5.87244874 -0.010543 0 0 Z " fill="#373C3D" transform="translate(602.766357421875,426.886474609375)"/>
<path d="M0 0 C0 0.99 0 1.98 0 3 C0.66 3.33 1.32 3.66 2 4 C2 4.66 2 5.32 2 6 C-12.52 6 -27.04 6 -42 6 C-42 5.67 -42 5.34 -42 5 C-41.20940186 4.91959473 -40.41880371 4.83918945 -39.60424805 4.75634766 C-35.96486276 4.38366354 -32.32619391 4.0043726 -28.6875 3.625 C-27.44419922 3.49867188 -26.20089844 3.37234375 -24.91992188 3.2421875 C-18.27511519 2.54457 -11.73577647 1.6928096 -5.18286133 0.38037109 C-3 0 -3 0 0 0 Z " fill="#989899" transform="translate(640,532)"/>
<path d="M0 0 C0.66 0.66 1.32 1.32 2 2 C1.20903931 2.50430542 1.20903931 2.50430542 0.40209961 3.01879883 C-9.69986526 9.47682108 -19.63847041 16.04484799 -29.24609375 23.21875 C-33.52587551 26.41099897 -37.88465696 29.48877704 -42.25 32.5625 C-42.97791748 33.07562744 -43.70583496 33.58875488 -44.45581055 34.11743164 C-47.28625871 36.10850783 -50.12031648 38.08021098 -53 40 C-51.95125002 37.37812506 -51.35068687 36.20628639 -48.875 34.75 C-48.25625 34.5025 -47.6375 34.255 -47 34 C-47 33.34 -47 32.68 -47 32 C-45.35867384 30.95893026 -43.68411892 29.97032017 -42 29 C-40.83037512 28.1866266 -39.67072269 27.358791 -38.51953125 26.51953125 C-37.91302734 26.07802734 -37.30652344 25.63652344 -36.68164062 25.18164062 C-35.42233207 24.2592004 -34.16454745 23.33467653 -32.90820312 22.40820312 C-28.21502209 19 -28.21502209 19 -26 19 C-26 18.34 -26 17.68 -26 17 C-25.01 16.67 -24.02 16.34 -23 16 C-22.525625 15.505 -22.05125 15.01 -21.5625 14.5 C-20 13 -20 13 -17.875 12.5 C-16.946875 12.2525 -16.946875 12.2525 -16 12 C-15.67 11.01 -15.34 10.02 -15 9 C-11.9375 7.8125 -11.9375 7.8125 -9 7 C-9 6.34 -9 5.68 -9 5 C-7.6078125 4.319375 -7.6078125 4.319375 -6.1875 3.625 C-2.96078611 2.0578367 -2.96078611 2.0578367 0 0 Z " fill="#E9EBEB" transform="translate(536,376)"/>
<path d="M0 0 C0.66 0.66 1.32 1.32 2 2 C-2.49257567 7.61571959 -8.39487624 9.5243954 -15 12 C-14.67 9.69 -14.34 7.38 -14 5 C-15.65 4.67 -17.3 4.34 -19 4 C-19 3.67 -19 3.34 -19 3 C-16.96040523 2.49161436 -14.91820862 1.99366114 -12.875 1.5 C-11.73804688 1.2215625 -10.60109375 0.943125 -9.4296875 0.65625 C-6.15042905 0.02878369 -3.32525702 -0.26987593 0 0 Z " fill="#BAC1C1" transform="translate(780,435)"/>
<path d="M0 0 C9.65555788 -0.05852346 19.27940015 0.10868066 28.9296875 0.4375 C30.29972693 0.48254022 31.66977307 0.52737664 33.03982544 0.57202148 C36.5940022 0.68837222 40.14808275 0.80743481 43.70214844 0.92712402 C47.34955381 1.04945554 50.99704612 1.16913707 54.64453125 1.2890625 C61.76310652 1.52349415 68.88158324 1.76079981 76 2 C76 2.33 76 2.66 76 3 C68.6028903 3.19582909 61.2054906 3.3726697 53.80761719 3.53710938 C51.29775012 3.59504424 48.78797475 3.65712137 46.27832031 3.72363281 C32.66791689 4.08151593 19.44512572 4.37702711 6 2 C4.31003906 1.71890381 4.31003906 1.71890381 2.5859375 1.43212891 C1.73257812 1.28952637 0.87921875 1.14692383 0 1 C0 0.67 0 0.34 0 0 Z " fill="#EBEDED" transform="translate(406,643)"/>
<path d="M0 0 C-0.33 0.99 -0.66 1.98 -1 3 C-0.01 3.33 0.98 3.66 2 4 C2.33 4.66 2.66 5.32 3 6 C-3.14778871 7.6277833 -8.64012196 8.20190089 -15 8 C-14.625 5.1875 -14.625 5.1875 -13 2 C-8.6777767 -0.11242109 -4.63658935 -1.54552978 0 0 Z " fill="#B3B5B6" transform="translate(654,529)"/>
<path d="M0 0 C0.33 0 0.66 0 1 0 C1 25.41 1 50.82 1 77 C-1.5931936 71.8136128 -0.93773966 67.292624 -0.78125 61.61328125 C-0.75905396 60.79627243 -0.73685791 59.97926361 -0.71398926 59.13749695 C-0.64303981 56.52915411 -0.57152678 53.92082707 -0.5 51.3125 C-0.45178579 49.5436208 -0.40360826 47.77474061 -0.35546875 46.00585938 C-0.23740476 41.6705612 -0.11883533 37.3352771 0 33 C-0.66 33 -1.32 33 -2 33 C-1.84152588 32.47889648 -1.68305176 31.95779297 -1.51977539 31.42089844 C-0.86021098 28.34892068 -0.78002727 25.40660253 -0.68359375 22.265625 C-0.62075195 20.32236328 -0.62075195 20.32236328 -0.55664062 18.33984375 C-0.51683329 16.97656524 -0.47712094 15.61328394 -0.4375 14.25 C-0.39427726 12.87108125 -0.35066179 11.49217474 -0.30664062 10.11328125 C-0.20056042 6.7422881 -0.0985015 3.37122174 0 0 Z " fill="#C3C5C4" transform="translate(1023,738)"/>
<path d="M0 0 C9.36809646 -0.0996606 18.70495056 -0.06254346 28.0625 0.4375 C29.23111572 0.49635376 29.23111572 0.49635376 30.42333984 0.55639648 C35.87533775 0.87533775 35.87533775 0.87533775 37 2 C39.52596259 2.23653523 42.03107207 2.42173692 44.5625 2.5625 C45.27341797 2.60568359 45.98433594 2.64886719 46.71679688 2.69335938 C48.47761912 2.79971777 50.2387832 2.90038846 52 3 C52 3.33 52 3.66 52 4 C34.48369712 4.52724657 17.38647427 2.90573734 0 1 C0 0.67 0 0.34 0 0 Z " fill="#8A9292" transform="translate(756,424)"/>
<path d="M0 0 C-5.96114464 5.24233717 -12.01860904 9.8503721 -18.8125 13.9375 C-19.74461304 14.50295532 -19.74461304 14.50295532 -20.69555664 15.07983398 C-24.35972707 17.2343917 -27.92217458 18.80725168 -32 20 C-31.34 18.68 -30.68 17.36 -30 16 C-28.68 16 -27.36 16 -26 16 C-26 15.34 -26 14.68 -26 14 C-23.03 13.01 -20.06 12.02 -17 11 C-17 10.34 -17 9.68 -17 9 C-15.35 8.67 -13.7 8.34 -12 8 C-12 7.01 -12 6.02 -12 5 C-10.13671875 3.359375 -10.13671875 3.359375 -7.6875 1.75 C-6.88699219 1.20859375 -6.08648437 0.6671875 -5.26171875 0.109375 C-3 -1 -3 -1 0 0 Z " fill="#EAEDEF" transform="translate(384,476)"/>
<path d="M0 0 C29.7 0.495 29.7 0.495 60 1 C60 1.33 60 1.66 60 2 C40.53 2.33 21.06 2.66 1 3 C0.67 2.01 0.34 1.02 0 0 Z " fill="#262D2D" transform="translate(552,628)"/>
<path d="M0 0 C1.86785156 0.01353516 1.86785156 0.01353516 3.7734375 0.02734375 C5.18496094 0.04474609 5.18496094 0.04474609 6.625 0.0625 C6.625 0.7225 6.625 1.3825 6.625 2.0625 C5.83996094 2.23265625 5.05492187 2.4028125 4.24609375 2.578125 C-2.91415835 4.19095068 -2.91415835 4.19095068 -9.5 7.3125 C-10.923125 8.17875 -10.923125 8.17875 -12.375 9.0625 C-13.035 8.7325 -13.695 8.4025 -14.375 8.0625 C-13.385 7.7325 -12.395 7.4025 -11.375 7.0625 C-11.375 5.7425 -11.375 4.4225 -11.375 3.0625 C-12.035 2.4025 -12.695 1.7425 -13.375 1.0625 C-8.85684719 0.17972245 -4.59987306 -0.04339503 0 0 Z " fill="#30393C" transform="translate(791.375,432.9375)"/>
<path d="M0 0 C-1.36731538 2.73463075 -2.70940066 2.83108448 -5.55078125 3.875 C-6.47697266 4.22046875 -7.40316406 4.5659375 -8.35742188 4.921875 C-9.33259766 5.27765625 -10.30777344 5.6334375 -11.3125 6 C-13.22593824 6.70650027 -15.13872442 7.41476961 -17.05078125 8.125 C-17.90325439 8.43695313 -18.75572754 8.74890625 -19.6340332 9.0703125 C-22.00512519 9.95213946 -22.00512519 9.95213946 -24.16870117 11.140625 C-26.49717378 12.23330912 -27.62956226 11.84658491 -30 11 C-28.12762629 10.03654556 -26.2519701 9.07946898 -24.375 8.125 C-23.33085937 7.59132813 -22.28671875 7.05765625 -21.2109375 6.5078125 C-16.63662768 4.35977893 -13.08303476 3 -8 3 C-8 2.34 -8 1.68 -8 1 C-5.29120665 -0.35439668 -2.99066732 -0.06501451 0 0 Z " fill="#E9EBEB" transform="translate(424,373)"/>
<path d="M0 0 C-6.25032286 2.16824859 -12.53506441 4.02537751 -18.9375 5.6875 C-19.78634766 5.91244141 -20.63519531 6.13738281 -21.50976562 6.36914062 C-27.74073898 8 -27.74073898 8 -30 8 C-30 7.34 -30 6.68 -30 6 C-26.535 5.505 -26.535 5.505 -23 5 C-23 4.34 -23 3.68 -23 3 C-19.40403926 1.3880176 -16.36227488 0.69405691 -12.4375 0.4375 C-8.59946595 0.18317655 -8.59946595 0.18317655 -4.84765625 -0.58984375 C-3 -1 -3 -1 0 0 Z " fill="#E4ECEC" transform="translate(451,443)"/>
<path d="M0 0 C0.66 0.66 1.32 1.32 2 2 C-3.14285714 7.57142857 -3.14285714 7.57142857 -7 8 C-8.125 4.25 -8.125 4.25 -7 2 C-7.99 1.67 -8.98 1.34 -10 1 C-6.61401171 -0.04184255 -3.53318313 -0.23042499 0 0 Z " fill="#ADB4B4" transform="translate(780,435)"/>
<path d="M0 0 C1.60488281 0.07734375 1.60488281 0.07734375 3.2421875 0.15625 C4.35335937 0.22070312 5.46453125 0.28515625 6.609375 0.3515625 C7.73601563 0.40828125 8.86265625 0.465 10.0234375 0.5234375 C12.80274028 0.66475798 15.5811191 0.81615658 18.359375 0.9765625 C18.359375 1.9665625 18.359375 2.9565625 18.359375 3.9765625 C16.88030608 4.00345466 15.40110017 4.02290871 13.921875 4.0390625 C12.68630859 4.05646484 12.68630859 4.05646484 11.42578125 4.07421875 C9.359375 3.9765625 9.359375 3.9765625 8.359375 2.9765625 C7.01922279 2.82073947 5.67178597 2.72612108 4.32421875 2.66015625 C3.51533203 2.61826172 2.70644531 2.57636719 1.87304688 2.53320312 C1.02291016 2.49388672 0.17277344 2.45457031 -0.703125 2.4140625 C-1.55712891 2.37087891 -2.41113281 2.32769531 -3.29101562 2.28320312 C-5.40734537 2.17679548 -7.52396313 2.07614519 -9.640625 1.9765625 C-6.28147826 -0.06540844 -3.89147963 -0.2069936 0 0 Z " fill="#B7BDBD" transform="translate(783.640625,423.0234375)"/>
<path d="M0 0 C3.3 0.33 6.6 0.66 10 1 C8.515 2.485 8.515 2.485 7 4 C6.34 4 5.68 4 5 4 C4.773125 4.639375 4.54625 5.27875 4.3125 5.9375 C3 8 3 8 0.375 8.75 C-0.40875 8.8325 -1.1925 8.915 -2 9 C-2 7.68 -2 6.36 -2 5 C-2.99 4.67 -3.98 4.34 -5 4 C-3.02 3.67 -1.04 3.34 1 3 C0.67 2.01 0.34 1.02 0 0 Z " fill="#9DA3A5" transform="translate(481,419)"/>
<path d="M0 0 C2.64 0.33 5.28 0.66 8 1 C4.25 3 4.25 3 2 3 C1.67 15.54 1.34 28.08 1 41 C0.67 41 0.34 41 0 41 C0 27.47 0 13.94 0 0 Z " fill="#ECF0ED" transform="translate(647,375)"/>
<path d="M0 0 C1.81293089 0.14037521 3.6253443 0.28744889 5.4375 0.4375 C6.95150391 0.55931641 6.95150391 0.55931641 8.49609375 0.68359375 C11 1 11 1 12 2 C12.04063832 3.66617115 12.042721 5.33388095 12 7 C11.34 7 10.68 7 10 7 C10 6.01 10 5.02 10 4 C4.06 4 -1.88 4 -8 4 C-8 3.67 -8 3.34 -8 3 C-6.865625 2.87625 -5.73125 2.7525 -4.5625 2.625 C-3.386875 2.41875 -2.21125 2.2125 -1 2 C-0.67 1.34 -0.34 0.68 0 0 Z " fill="#C0C7C7" transform="translate(792,420)"/>
<path d="M0 0 C-0.33 0.99 -0.66 1.98 -1 3 C1.31 3.33 3.62 3.66 6 4 C6 4.33 6 4.66 6 5 C0.72 5 -4.56 5 -10 5 C-10 3.68 -10 2.36 -10 1 C-6.61981469 -0.04005702 -3.5219721 -0.08004482 0 0 Z " fill="#292B2E" transform="translate(306,503)"/>
<path d="M0 0 C0.99 0.33 1.98 0.66 3 1 C5.22574335 1.22451458 7.45581519 1.40782878 9.6875 1.5625 C10.86699219 1.64628906 12.04648437 1.73007812 13.26171875 1.81640625 C14.61716797 1.90728516 14.61716797 1.90728516 16 2 C16 2.33 16 2.66 16 3 C1.48 3 -13.04 3 -28 3 C-28 2.67 -28 2.34 -28 2 C-18.76 2 -9.52 2 0 2 C0 1.34 0 0.68 0 0 Z " fill="#EFF2F4" transform="translate(568,625)"/>
<path d="M0 0 C-0.66 1.32 -1.32 2.64 -2 4 C-0.68 4.66 0.64 5.32 2 6 C-2.95 6 -7.9 6 -13 6 C-13 5.34 -13 4.68 -13 4 C-11.39850114 3.32694982 -9.79368971 2.66177773 -8.1875 2 C-7.29417969 1.62875 -6.40085937 1.2575 -5.48046875 0.875 C-3 0 -3 0 0 0 Z " fill="#CCCEC9" transform="translate(614,581)"/>
<path d="M0 0 C0.66 0 1.32 0 2 0 C2 0.66 2 1.32 2 2 C2.66 2.33 3.32 2.66 4 3 C3.01 3 2.02 3 1 3 C0.773125 3.598125 0.54625 4.19625 0.3125 4.8125 C-1.38626852 7.64378087 -3.00965555 8.64722513 -6 10 C-8.3125 9.6875 -8.3125 9.6875 -10 9 C-8 7 -8 7 -5.9375 6.5625 C-4.9784375 6.2840625 -4.9784375 6.2840625 -4 6 C-3.67 5.01 -3.34 4.02 -3 3 C-4.32 2.67 -5.64 2.34 -7 2 C-6.67 1.67 -6.34 1.34 -6 1 C-4.33333333 1 -2.66666667 1 -1 1 C-0.67 0.67 -0.34 0.34 0 0 Z " fill="#EAECEC" transform="translate(204,517)"/>
<path d="M0 0 C0.33 0 0.66 0 1 0 C1.1257485 6.41317365 1.1257485 6.41317365 0.53125 9.1875 C-0.19807678 13.04864177 -0.36209204 16.89304587 -0.5625 20.8125 C-0.60568359 21.60076172 -0.64886719 22.38902344 -0.69335938 23.20117188 C-0.79878321 25.13394215 -0.89983094 27.06695026 -1 29 C-1.33 29 -1.66 29 -2 29 C-3.64041614 8.64997278 -3.64041614 8.64997278 -1 1 C-0.67 0.67 -0.34 0.34 0 0 Z " fill="#E9EAEF" transform="translate(173,487)"/>
<path d="M0 0 C6.52307692 0.49230769 6.52307692 0.49230769 8.9375 3.0625 C9.288125 3.701875 9.63875 4.34125 10 5 C8.741875 5.185625 7.48375 5.37125 6.1875 5.5625 C5.12595703 5.71912109 5.12595703 5.71912109 4.04296875 5.87890625 C2 6 2 6 -1 5 C-0.67 3.35 -0.34 1.7 0 0 Z " fill="#A4A4A3" transform="translate(813,438)"/>
<path d="M0 0 C0.66 0.66 1.32 1.32 2 2 C-1.22570078 3.01142195 -4.45605865 4.00708653 -7.6875 5 C-8.59951172 5.28617187 -9.51152344 5.57234375 -10.45117188 5.8671875 C-11.33740234 6.13789063 -12.22363281 6.40859375 -13.13671875 6.6875 C-13.94842529 6.93886719 -14.76013184 7.19023437 -15.59643555 7.44921875 C-18.13966705 8.03200496 -20.39977907 8.09712888 -23 8 C-19.14373724 4.71503543 -16.00700771 4 -11 4 C-11 3.34 -11 2.68 -11 2 C-9.9275 1.855625 -8.855 1.71125 -7.75 1.5625 C-4.20814728 1.12045294 -4.20814728 1.12045294 -1.6875 0.3125 C-1.130625 0.209375 -0.57375 0.10625 0 0 Z " fill="#EAEEEC" transform="translate(451,364)"/>
<path d="M0 0 C0.66 0.33 1.32 0.66 2 1 C-0.61629787 4.38579724 -3.94473671 5.27115529 -8 6 C-11.81721162 6.23010179 -15.61520172 6.18965827 -19.4375 6.125 C-20.45521484 6.11597656 -21.47292969 6.10695313 -22.52148438 6.09765625 C-25.01457156 6.07424698 -27.50715859 6.041457 -30 6 C-30 5.67 -30 5.34 -30 5 C-29.44650879 4.9906543 -28.89301758 4.98130859 -28.32275391 4.97167969 C-14.57962407 4.92996495 -14.57962407 4.92996495 -1.6796875 0.7421875 C-1.12539063 0.49726563 -0.57109375 0.25234375 0 0 Z " fill="#EEF0EF" transform="translate(582,419)"/>
<path d="M0 0 C-1.36983503 3.16115776 -1.9890638 3.9927092 -5 6 C-5 5.01 -5 4.02 -5 3 C-5.33 3.66 -5.66 4.32 -6 5 C-8.875 4.6875 -8.875 4.6875 -12 4 C-12.66 3.01 -13.32 2.02 -14 1 C-9.27616037 0.34843591 -4.78025483 -0.11950637 0 0 Z " fill="#191D1E" transform="translate(378,462)"/>
<path d="M0 0 C0.79664063 0.00257813 1.59328125 0.00515625 2.4140625 0.0078125 C3.20554687 0.00523437 3.99703125 0.00265625 4.8125 0 C7.0390625 0.1328125 7.0390625 0.1328125 10.0390625 1.1328125 C10.0390625 2.4528125 10.0390625 3.7728125 10.0390625 5.1328125 C8.24582997 4.85093314 6.45449124 4.5569844 4.6640625 4.2578125 C3.66632813 4.09539062 2.66859375 3.93296875 1.640625 3.765625 C-0.9609375 3.1328125 -0.9609375 3.1328125 -2.9609375 1.1328125 C-1.9609375 0.1328125 -1.9609375 0.1328125 0 0 Z " fill="#1E2E2F" transform="translate(468.9609375,422.8671875)"/>
<path d="M0 0 C0 0.66 0 1.32 0 2 C-2.90670962 3.54044891 -5.82671338 5.05377922 -8.75 6.5625 C-9.575 7.00013672 -10.4 7.43777344 -11.25 7.88867188 C-12.04921875 8.29794922 -12.8484375 8.70722656 -13.671875 9.12890625 C-14.77160645 9.70233765 -14.77160645 9.70233765 -15.89355469 10.28735352 C-18.3589552 11.12144068 -19.58326188 10.86209729 -22 10 C-19 8 -19 8 -15 8 C-14.67 7.01 -14.34 6.02 -14 5 C-13.319375 4.9175 -12.63875 4.835 -11.9375 4.75 C-9.28231457 4.07208032 -7.63219434 3.31087552 -5.3125 1.9375 C-2 0 -2 0 0 0 Z " fill="#E4E7E5" transform="translate(371,396)"/>
<path d="M0 0 C1.75570313 0.01353516 1.75570313 0.01353516 3.546875 0.02734375 C4.43890625 0.03894531 5.3309375 0.05054688 6.25 0.0625 C-0.90602434 3.95983133 -8.75820899 4.32029971 -16.75 4.0625 C-16.75 3.7325 -16.75 3.4025 -16.75 3.0625 C-15.1 3.0625 -13.45 3.0625 -11.75 3.0625 C-11.42 2.4025 -11.09 1.7425 -10.75 1.0625 C-7.2520607 -0.26171988 -3.69552923 -0.03695529 0 0 Z " fill="#0B0E10" transform="translate(463.75,427.9375)"/>
<path d="M0 0 C3.7538853 0.03381879 6.80692596 0.78527039 10.3125 2.1875 C10.3125 2.5175 10.3125 2.8475 10.3125 3.1875 C2.7225 3.1875 -4.8675 3.1875 -12.6875 3.1875 C-12.6875 2.8575 -12.6875 2.5275 -12.6875 2.1875 C-10.63671875 1.95963542 -8.5859375 1.73177083 -6.53515625 1.50390625 C-3.37021426 0.9619183 -3.94859008 0.20077577 0 0 Z " fill="#EEEDEF" transform="translate(236.6875,582.8125)"/>
<path d="M0 0 C1.2065625 0.0309375 1.2065625 0.0309375 2.4375 0.0625 C-1.18949946 4.29602111 -6.34628631 5.56896873 -11.5625 7.0625 C-15.25 7.3125 -15.25 7.3125 -17.5625 7.0625 C-15.05879581 4.01377177 -12.71837088 3.34530805 -8.9375 2.4375 C-5.78236672 1.66734936 -3.04602701 0.07429334 0 0 Z " fill="#E3E5E6" transform="translate(345.5625,496.9375)"/>
<path d="M0 0 C-0.33 0.99 -0.66 1.98 -1 3 C-0.01 3.33 0.98 3.66 2 4 C2.33 4.66 2.66 5.32 3 6 C1.02 6 -0.96 6 -3 6 C-3 5.34 -3 4.68 -3 4 C-3.66 4 -4.32 4 -5 4 C-5 3.34 -5 2.68 -5 2 C-5.99 1.67 -6.98 1.34 -8 1 C-3.375 -1.125 -3.375 -1.125 0 0 Z " fill="#BEC0C2" transform="translate(654,529)"/>
<path d="M0 0 C2.97 0.66 5.94 1.32 9 2 C9 2.33 9 2.66 9 3 C0.09 3 -8.82 3 -18 3 C-18 2.67 -18 2.34 -18 2 C-12.06 1.67 -6.12 1.34 0 1 C0 0.67 0 0.34 0 0 Z " fill="#BDC0BF" transform="translate(960,1021)"/>
<path d="M0 0 C0.99 0 1.98 0 3 0 C2.44225728 3.23490776 1.62788492 4.97855006 -1 7 C-1.99 7 -2.98 7 -4 7 C-4.33 7.99 -4.66 8.98 -5 10 C-7.0625 10.6875 -7.0625 10.6875 -9 11 C-8.60167969 10.54109375 -8.20335937 10.0821875 -7.79296875 9.609375 C-6.99826172 8.68898438 -6.99826172 8.68898438 -6.1875 7.75 C-5.63835938 7.11449219 -5.08921875 6.47898437 -4.5234375 5.82421875 C-2.90875413 3.94643248 -2.90875413 3.94643248 -1.3125 1.5625 C-0.6628125 0.7890625 -0.6628125 0.7890625 0 0 Z " fill="#E3E8F0" transform="translate(639,558)"/>
<path d="M0 0 C-3.57204106 3.57204106 -9.29296854 3.84722221 -14.21484375 4.125 C-15.81043996 4.125 -17.40590978 4.06930827 -19 4 C-14.19680462 -0.80319538 -6.36918685 -0.26538279 0 0 Z " fill="#E7ECED" transform="translate(274,430)"/>
<path d="M0 0 C0.66 0.33 1.32 0.66 2 1 C-0.62304564 2.98176757 -3.24876211 4.95996531 -5.875 6.9375 C-6.62136719 7.50146484 -7.36773437 8.06542969 -8.13671875 8.64648438 C-9.20986328 9.45375977 -9.20986328 9.45375977 -10.3046875 10.27734375 C-11.2944458 11.02359009 -11.2944458 11.02359009 -12.30419922 11.78491211 C-14 13 -14 13 -16 14 C-14.95125002 11.37812506 -14.35068687 10.20628639 -11.875 8.75 C-11.25625 8.5025 -10.6375 8.255 -10 8 C-10 7.34 -10 6.68 -10 6 C-7.8125 4.5625 -7.8125 4.5625 -5 3 C-4.113125 2.4225 -3.22625 1.845 -2.3125 1.25 C-1.549375 0.8375 -0.78625 0.425 0 0 Z " fill="#EFF0F0" transform="translate(499,402)"/>
<path d="M0 0 C0.59167969 0.13277344 1.18335938 0.26554687 1.79296875 0.40234375 C5.85446525 1.31005178 9.91374171 2.2091113 14 3 C10.6853333 5.02907167 8.5684021 5.12742133 4.75 4.625 C3.85796875 4.51414062 2.9659375 4.40328125 2.046875 4.2890625 C1.03367187 4.14597656 1.03367187 4.14597656 0 4 C0 2.68 0 1.36 0 0 Z " fill="#132226" transform="translate(463,424)"/>
<path d="M0 0 C-0.33 0.66 -0.66 1.32 -1 2 C-4.35083938 2.64854956 -7.70631285 3.02511635 -11.09375 3.4375 C-12.0528125 3.623125 -13.011875 3.80875 -14 4 C-14.33 4.66 -14.66 5.32 -15 6 C-15.99 6 -16.98 6 -18 6 C-18 5.01 -18 4.02 -18 3 C-15.93918639 2.49309416 -13.87626474 1.99475381 -11.8125 1.5 C-10.66394531 1.2215625 -9.51539063 0.943125 -8.33203125 0.65625 C-5.43181171 0.08504615 -2.93903615 -0.13283779 0 0 Z " fill="#E2E7E9" transform="translate(477,378)"/>
<path d="M0 0 C1.68609375 0.47566406 1.68609375 0.47566406 3.40625 0.9609375 C8.09969251 2.13429813 12.67988822 2.43659172 17.5 2.625 C18.32242188 2.66367187 19.14484375 2.70234375 19.9921875 2.7421875 C21.9944701 2.83531692 23.99720262 2.91868985 26 3 C26 3.33 26 3.66 26 4 C22.41905415 4.31331041 18.83626145 4.56818594 15.25 4.8125 C14.23421875 4.90208984 13.2184375 4.99167969 12.171875 5.08398438 C9.36513237 5.25940579 6.78866802 5.3716327 4 5 C1.296875 2.51171875 1.296875 2.51171875 0 0 Z " fill="#EBEDEF" transform="translate(192,602)"/>
<path d="M0 0 C0.66 0.33 1.32 0.66 2 1 C-1.63 4.3 -5.26 7.6 -9 11 C-10.24546405 8.50907189 -9.7767578 7.58919267 -9 5 C-8.01 5 -7.02 5 -6 5 C-5.67 3.68 -5.34 2.36 -5 1 C-5 1.66 -5 2.32 -5 3 C-4.21625 2.484375 -3.4325 1.96875 -2.625 1.4375 C-1.75875 0.963125 -0.8925 0.48875 0 0 Z " fill="#F0F0F0" transform="translate(546,408)"/>
<path d="M0 0 C-0.33 0.99 -0.66 1.98 -1 3 C-2.31774196 3.39044206 -3.65667272 3.70955086 -5 4 C-7.01526169 4.96887581 -9.01833966 5.9641321 -11 7 C-11.99 6.34 -12.98 5.68 -14 5 C-12.421924 4.15675328 -10.8372958 3.32576082 -9.25 2.5 C-8.36828125 2.0359375 -7.4865625 1.571875 -6.578125 1.09375 C-4 0 -4 0 0 0 Z " fill="#E3E7E4" transform="translate(414,397)"/>
<path d="M0 0 C2.64 0 5.28 0 8 0 C8 0.66 8 1.32 8 2 C6.54735962 2.8638129 5.0876837 3.71580454 3.625 4.5625 C2.40683594 5.27599609 2.40683594 5.27599609 1.1640625 6.00390625 C0.44992187 6.33261719 -0.26421875 6.66132813 -1 7 C-1.66 6.67 -2.32 6.34 -3 6 C-2.01 5.67 -1.02 5.34 0 5 C0 3.68 0 2.36 0 1 C0 0.67 0 0.34 0 0 Z " fill="#5A6163" transform="translate(780,435)"/>
<path d="M0 0 C1.98 0.66 3.96 1.32 6 2 C6 3.32 6 4.64 6 6 C5.34 6 4.68 6 4 6 C4 6.66 4 7.32 4 8 C3.01 8.33 2.02 8.66 1 9 C0.67 6.03 0.34 3.06 0 0 Z " fill="#878988" transform="translate(647,630)"/>
<path d="M0 0 C0.66 0.99 1.32 1.98 2 3 C-4.435 3.495 -4.435 3.495 -11 4 C-11 3.34 -11 2.68 -11 2 C-9.54494642 1.47007308 -8.08581873 0.9513211 -6.625 0.4375 C-5.81289063 0.14746094 -5.00078125 -0.14257812 -4.1640625 -0.44140625 C-2 -1 -2 -1 0 0 Z " fill="#DDDEDB" transform="translate(293,583)"/>
<path d="M0 0 C0.99 0.33 1.98 0.66 3 1 C2.25234375 1.54269531 1.5046875 2.08539063 0.734375 2.64453125 C-0.25046875 3.35996094 -1.2353125 4.07539063 -2.25 4.8125 C-3.22453125 5.52019531 -4.1990625 6.22789062 -5.203125 6.95703125 C-7.48189009 8.62154821 -9.74765822 10.30001823 -12 12 C-10.64274016 7.56781816 -8.86028205 5.72377597 -5.0625 3.125 C-4.18722656 2.50882812 -3.31195312 1.89265625 -2.41015625 1.2578125 C-1.61480469 0.84273438 -0.81945312 0.42765625 0 0 Z " fill="#EBEBEB" transform="translate(543,395)"/>
<path d="M0 0 C0.66 0.33 1.32 0.66 2 1 C0.6875 3.5 0.6875 3.5 -1 6 C-1.99 6 -2.98 6 -4 6 C-4.66 7.32 -5.32 8.64 -6 10 C-6.66 10 -7.32 10 -8 10 C-6.23915938 6.0381086 -3.9706445 1.98532225 0 0 Z " fill="#D9DCDE" transform="translate(807,552)"/>
<path d="M0 0 C-1.875 4.75 -1.875 4.75 -3 7 C-5.64860427 7.59355614 -8.29197322 7.74209269 -11 8 C-3.21621622 0 -3.21621622 0 0 0 Z " fill="#13191A" transform="translate(393,470)"/>
<path d="M0 0 C0.66 0 1.32 0 2 0 C2.33 1.65 2.66 3.3 3 5 C2.01 5.66 1.02 6.32 0 7 C-1.21284876 10.05429073 -1.21284876 10.05429073 -2 13 C-2.33 13 -2.66 13 -3 13 C-2.52060632 8.28596212 -2.03165952 4.33420699 0 0 Z " fill="#E0E2E5" transform="translate(729,498)"/>
<path d="M0 0 C2.31 0.33 4.62 0.66 7 1 C6.75 3.375 6.75 3.375 6 6 C4.1875 7.1875 4.1875 7.1875 2 8 C0.88625 8.556875 0.88625 8.556875 -0.25 9.125 C-0.8275 9.41375 -1.405 9.7025 -2 10 C-0.625 7.5 -0.625 7.5 1 5 C1.66 5 2.32 5 3 5 C3.33 3.68 3.66 2.36 4 1 C2.68 0.67 1.36 0.34 0 0 Z " fill="#0F1316" transform="translate(592,399)"/>
<path d="M0 0 C0 0.66 0 1.32 0 2 C-1.95803507 2.05389087 -3.91648909 2.09274217 -5.875 2.125 C-6.96554687 2.14820313 -8.05609375 2.17140625 -9.1796875 2.1953125 C-12 2 -12 2 -14 0 C-8.97703996 -1.13016601 -5.02125926 -0.77916092 0 0 Z " fill="#313D3D" transform="translate(850,431)"/>
<path d="M0 0 C-1 3 -1 3 -2.77734375 4.16796875 C-3.49019531 4.50441406 -4.20304688 4.84085937 -4.9375 5.1875 C-6.00291016 5.70376953 -6.00291016 5.70376953 -7.08984375 6.23046875 C-9 7 -9 7 -11 7 C-11 6.34 -11 5.68 -11 5 C-10.34 5 -9.68 5 -9 5 C-8.67 4.34 -8.34 3.68 -8 3 C-5.06295544 0.9904432 -3.60777515 0 0 0 Z " fill="#EBEDEE" transform="translate(215,445)"/>
<path d="M0 0 C3.96 0 7.92 0 12 0 C7.577168 3.317124 6.28089024 3.30466674 1 3 C0.67 2.01 0.34 1.02 0 0 Z " fill="#303435" transform="translate(552,628)"/>
<path d="M0 0 C-0.33 0.99 -0.66 1.98 -1 3 C-4.3 3.33 -7.6 3.66 -11 4 C-11 3.34 -11 2.68 -11 2 C-3.375 0 -3.375 0 0 0 Z " fill="#273131" transform="translate(463,441)"/>
<path d="M0 0 C-2.54115245 2.54115245 -4.55221279 2.43562323 -8.02734375 2.75390625 C-10.2086702 2.96047055 -10.2086702 2.96047055 -13 4 C-15.6875 3.5625 -15.6875 3.5625 -18 3 C-18 2.67 -18 2.34 -18 2 C-15.93827387 1.66191314 -13.8755797 1.32972639 -11.8125 1 C-10.66394531 0.814375 -9.51539063 0.62875 -8.33203125 0.4375 C-5.49584607 0.06510523 -2.85280436 -0.08596021 0 0 Z " fill="#272E2F" transform="translate(483,438)"/>
<path d="M0 0 C0.66 0 1.32 0 2 0 C1.34 5.94 0.68 11.88 0 18 C-0.33 18 -0.66 18 -1 18 C-1.02684312 15.18743719 -1.04676188 12.37512759 -1.0625 9.5625 C-1.07087891 8.76005859 -1.07925781 7.95761719 -1.08789062 7.13085938 C-1.0965143 5.08704779 -1.0522815 3.04316098 -1 1 C-0.67 0.67 -0.34 0.34 0 0 Z " fill="#E6E8E9" transform="translate(738,512)"/>
<path d="M0 0 C0.66 0.66 1.32 1.32 2 2 C4.32275177 2.40047444 6.65739357 2.7397104 9 3 C9 3.33 9 3.66 9 4 C4.38 4.66 -0.24 5.32 -5 6 C-4.34 5.01 -3.68 4.02 -3 3 C-2.34 3 -1.68 3 -1 3 C-0.67 2.01 -0.34 1.02 0 0 Z " fill="#202626" transform="translate(272,515)"/>
<path d="M0 0 C0.66 0.33 1.32 0.66 2 1 C1.67 1.66 1.34 2.32 1 3 C0.34 3 -0.32 3 -1 3 C-1 3.66 -1 4.32 -1 5 C2.3 5 5.6 5 9 5 C9 5.33 9 5.66 9 6 C7.20841511 6.02696365 5.41671527 6.04637917 3.625 6.0625 C2.62726563 6.07410156 1.62953125 6.08570313 0.6015625 6.09765625 C-2 6 -2 6 -4 5 C-2.25 1.125 -2.25 1.125 0 0 Z " fill="#A7A9AB" transform="translate(309,501)"/>
<path d="M0 0 C-6.28571429 5.57142857 -6.28571429 5.57142857 -10 6 C-8.20404732 1.26521567 -5.07984355 -1.69328118 0 0 Z " fill="#DEE1E2" transform="translate(755,476)"/>
<path d="M0 0 C2.3263076 0.51695724 4.40890259 1.16550819 6.625 2.0625 C8.88449553 3.12238884 8.88449553 3.12238884 11 3 C11.33 3.99 11.66 4.98 12 6 C7.01208429 5.52496041 3.9767259 4.0298864 0 1 C0 0.67 0 0.34 0 0 Z " fill="#D5D9DA" transform="translate(775,397)"/>
<path d="M0 0 C7.75 -0.125 7.75 -0.125 10 1 C10 1.66 10 2.32 10 3 C6.7 3 3.4 3 0 3 C0 2.01 0 1.02 0 0 Z " fill="#E2E8E7" transform="translate(656,377)"/>
<path d="M0 0 C5.05255964 0.63156995 9.29593201 2.13459373 14 4 C14 4.33 14 4.66 14 5 C8.58609132 4.53328373 4.79482068 3.75702189 0 1 C0 0.67 0 0.34 0 0 Z " fill="#D8DCDD" transform="translate(703,367)"/>
<path d="M0 0 C0.66 0.33 1.32 0.66 2 1 C-1.44615385 6.78461538 -1.44615385 6.78461538 -4.25 7.875 C-4.8275 7.91625 -5.405 7.9575 -6 8 C-6 5 -6 5 -4.6875 3.61328125 C-3.125 2.40885417 -1.5625 1.20442708 0 0 Z " fill="#E3E7EC" transform="translate(258,512)"/>
<path d="M0 0 C0.66 0.33 1.32 0.66 2 1 C0.71451591 2.33929505 -0.57858155 3.67128643 -1.875 5 C-2.59429688 5.7425 -3.31359375 6.485 -4.0546875 7.25 C-6 9 -6 9 -8 9 C-8 8.01 -8 7.02 -8 6 C-7.01 6 -6.02 6 -5 6 C-4.731875 5.38125 -4.46375 4.7625 -4.1875 4.125 C-3 2 -3 2 0 0 Z " fill="#EAEBED" transform="translate(729,464)"/>
<path d="M0 0 C0 0.66 0 1.32 0 2 C-1.45537568 2.83848804 -2.91440373 3.67063934 -4.375 4.5 C-5.59316406 5.19609375 -5.59316406 5.19609375 -6.8359375 5.90625 C-9 7 -9 7 -11 7 C-11 6.34 -11 5.68 -11 5 C-10.401875 4.731875 -9.80375 4.46375 -9.1875 4.1875 C-6.95745037 3.12897949 -6.95745037 3.12897949 -5.5 1.375 C-4 0 -4 0 0 0 Z " fill="#E9ECEB" transform="translate(347,408)"/>
<path d="M0 0 C0.33 0.66 0.66 1.32 1 2 C0.34 2 -0.32 2 -1 2 C-1.12375 3.299375 -1.2475 4.59875 -1.375 5.9375 C-1.5859375 8.15234375 -1.5859375 8.15234375 -2 10 C-2.99 10.495 -2.99 10.495 -4 11 C-3.67 9.68 -3.34 8.36 -3 7 C-3.66 7 -4.32 7 -5 7 C-4.60196439 4.11424181 -4.20990931 3.17810487 -1.9375 1.25 C-1.298125 0.8375 -0.65875 0.425 0 0 Z " fill="#E5E7ED" transform="translate(600,403)"/>
<path d="M0 0 C0 0.66 0 1.32 0 2 C-3.96 2.99 -7.92 3.98 -12 5 C-12 4.34 -12 3.68 -12 3 C-4.71428571 -0.42857143 -4.71428571 -0.42857143 0 0 Z " fill="#E4E6E8" transform="translate(438,388)"/>
<path d="M0 0 C1.98 0.495 1.98 0.495 4 1 C3.01 2.485 3.01 2.485 2 4 C2.66 4 3.32 4 4 4 C4 4.66 4 5.32 4 6 C2.35 6.66 0.7 7.32 -1 8 C-0.67 5.36 -0.34 2.72 0 0 Z " fill="#C5CCCE" transform="translate(766,439)"/>
<path d="M0 0 C2.875 -0.125 2.875 -0.125 6 0 C6.66 0.66 7.32 1.32 8 2 C6.37660195 3.70884005 4.70680947 5.37446717 3 7 C2.34 7 1.68 7 1 7 C1.33 6.01 1.66 5.02 2 4 C2.66 4 3.32 4 4 4 C4 3.01 4 2.02 4 1 C2.68 0.67 1.36 0.34 0 0 Z " fill="#8B9294" transform="translate(774,435)"/>
<path d="M0 0 C0.66 0.33 1.32 0.66 2 1 C-0.34804392 4.78295966 -2.89593075 6.34090818 -7 8 C-7.66 7.67 -8.32 7.34 -9 7 C-6.03 4.69 -3.06 2.38 0 0 Z " fill="#EBECEC" transform="translate(527,406)"/>
<path d="M0 0 C3.55780196 0.60990891 6.6828589 1.5783681 10 3 C10 3.99 10 4.98 10 6 C6.51329166 4.8905928 3.22515763 3.73662334 0 2 C0 1.34 0 0.68 0 0 Z " fill="#C5C9C9" transform="translate(766,393)"/>
<path d="M0 0 C3.465 1.485 3.465 1.485 7 3 C6.67 3.66 6.34 4.32 6 5 C3.69 5 1.38 5 -1 5 C-0.67 3.35 -0.34 1.7 0 0 Z " fill="#E0E1E2" transform="translate(401,580)"/>
<path d="M0 0 C5.41538462 -0.36923077 5.41538462 -0.36923077 8.375 1.5 C8.91125 1.995 9.4475 2.49 10 3 C6.78548731 4.60725635 3.56387464 4.05748185 0 4 C1.32 3.67 2.64 3.34 4 3 C4 2.34 4 1.68 4 1 C2.68 0.67 1.36 0.34 0 0 Z " fill="#929392" transform="translate(626,534)"/>
<path d="M0 0 C0.99 0.33 1.98 0.66 3 1 C-0.96 4.465 -0.96 4.465 -5 8 C-5.33 7.01 -5.66 6.02 -6 5 C-1.60546875 0.99609375 -1.60546875 0.99609375 0 0 Z " fill="#E4E6EA" transform="translate(381,475)"/>
<path d="M0 0 C0 3 0 3 -2 6 C-2.66 6 -3.32 6 -4 6 C-4 6.66 -4 7.32 -4 8 C-5.65 8.33 -7.3 8.66 -9 9 C-6 6 -3 3 0 0 Z " fill="#E9EBF0" transform="translate(374,467)"/>
<path d="M0 0 C0.66 0.33 1.32 0.66 2 1 C0.35 2.98 -1.3 4.96 -3 7 C-4.32 6.67 -5.64 6.34 -7 6 C-7 5.34 -7 4.68 -7 4 C-1.7265625 0.77734375 -1.7265625 0.77734375 0 0 Z " fill="#EDF1EF" transform="translate(554,389)"/>
<path d="M0 0 C0.66 0.33 1.32 0.66 2 1 C1.67 1.66 1.34 2.32 1 3 C3.31 3.33 5.62 3.66 8 4 C8 4.33 8 4.66 8 5 C0.57142857 5.14285714 0.57142857 5.14285714 -3 4 C-2.67 3.01 -2.34 2.02 -2 1 C-1.34 0.67 -0.68 0.34 0 0 Z " fill="#5C5F61" transform="translate(304,503)"/>
<path d="M0 0 C6.0546875 -0.1953125 6.0546875 -0.1953125 8 0 C8.66 0.66 9.32 1.32 10 2 C6.7 2.33 3.4 2.66 0 3 C0 2.01 0 1.02 0 0 Z " fill="#BFC8C7" transform="translate(492,434)"/>
<path d="M0 0 C4.6875 0.78125 4.6875 0.78125 9.375 1.5625 C10.674375 1.7790625 10.674375 1.7790625 12 2 C12 2.33 12 2.66 12 3 C8.37 3 4.74 3 1 3 C0.67 2.01 0.34 1.02 0 0 Z " fill="#0E1110" transform="translate(576,538)"/>
<path d="M0 0 C0.33 0.99 0.66 1.98 1 3 C0.01 3.33 -0.98 3.66 -2 4 C-2.680625 4.804375 -2.680625 4.804375 -3.375 5.625 C-3.91125 6.07875 -4.4475 6.5325 -5 7 C-7.6875 6.6875 -7.6875 6.6875 -10 6 C-10 5.67 -10 5.34 -10 5 C-9.0925 4.731875 -8.185 4.46375 -7.25 4.1875 C-4.28528037 3.10423706 -2.3830246 2.01640543 0 0 Z " fill="#F4F7FA" transform="translate(274,496)"/>
<path d="M0 0 C0.99 0 1.98 0 3 0 C3.33 0.99 3.66 1.98 4 3 C3.67 3.66 3.34 4.32 3 5 C3.66 5 4.32 5 5 5 C5 5.66 5 6.32 5 7 C3.35 7.33 1.7 7.66 0 8 C0.57584432 5.61435923 1.22227595 3.33317216 2 1 C1.34 0.67 0.68 0.34 0 0 Z " fill="#E1E4EC" transform="translate(287,468)"/>
<path d="M0 0 C2.31 0 4.62 0 7 0 C5.25 2.0625 5.25 2.0625 3 4 C0.75 3.75 0.75 3.75 -1 3 C-0.67 2.01 -0.34 1.02 0 0 Z " fill="#EFF1F1" transform="translate(541,371)"/>
<path d="M0 0 C-0.33 0.66 -0.66 1.32 -1 2 C-4.0625 2.625 -4.0625 2.625 -7 3 C-6.67 2.01 -6.34 1.02 -6 0 C-3.50907189 -1.24546405 -2.58919267 -0.7767578 0 0 Z M-10 3 C-9.01 3 -8.02 3 -7 3 C-7.33 3.66 -7.66 4.32 -8 5 C-8.66 4.34 -9.32 3.68 -10 3 Z " fill="#090F0F" transform="translate(223,446)"/>
<path d="M0 0 C3.625 -0.1875 3.625 -0.1875 7 0 C5.68 1.32 4.36 2.64 3 4 C3 3.34 3 2.68 3 2 C1.35 2.33 -0.3 2.66 -2 3 C-1.34 2.01 -0.68 1.02 0 0 Z " fill="#E0E3E2" transform="translate(757,439)"/>
<path d="M0 0 C0 1.98 0 3.96 0 6 C-0.99 5.34 -1.98 4.68 -3 4 C-3 3.34 -3 2.68 -3 2 C-4.65 2 -6.3 2 -8 2 C-4.77208445 -0.1519437 -3.71599191 -0.20086443 0 0 Z " fill="#181D20" transform="translate(853,429)"/>
<path d="M0 0 C0.99 0.33 1.98 0.66 3 1 C-1.455 4.465 -1.455 4.465 -6 8 C-6.66 7.34 -7.32 6.68 -8 6 C-6.7391988 4.96680187 -5.46596742 3.94875621 -4.1875 2.9375 C-3.47980469 2.36902344 -2.77210938 1.80054688 -2.04296875 1.21484375 C-1.36878906 0.81394531 -0.69460938 0.41304688 0 0 Z " fill="#E0E2E3" transform="translate(508,395)"/>
<path d="M0 0 C0.99 0.33 1.98 0.66 3 1 C2.34 1 1.68 1 1 1 C1 1.99 1 2.98 1 4 C1.99 3.67 2.98 3.34 4 3 C4 3.66 4 4.32 4 5 C1.69 5 -0.62 5 -3 5 C-3 4.34 -3 3.68 -3 3 C-2.34 3 -1.68 3 -1 3 C-0.67 2.01 -0.34 1.02 0 0 Z " fill="#D8D3D4" transform="translate(311,501)"/>
<path d="M0 0 C1.23556641 0.01740234 1.23556641 0.01740234 2.49609375 0.03515625 C3.32238281 0.04417969 4.14867187 0.05320312 5 0.0625 C5.63808594 0.07410156 6.27617187 0.08570313 6.93359375 0.09765625 C4.00231913 2.05183933 2.37524696 2.74466618 -1.06640625 3.09765625 C-1.72640625 2.43765625 -2.38640625 1.77765625 -3.06640625 1.09765625 C-2.06640625 0.09765625 -2.06640625 0.09765625 0 0 Z " fill="#263A37" transform="translate(469.06640625,422.90234375)"/>
<path d="M0 0 C0 0.66 0 1.32 0 2 C-0.99 2.33 -1.98 2.66 -3 3 C-4.66710346 4.49985609 -4.66710346 4.49985609 -6 6 C-6.33 4.68 -6.66 3.36 -7 2 C-4.35261084 0.5393715 -3.10551666 0 0 0 Z " fill="#E3E6E3" transform="translate(388,409)"/>
<path d="M0 0 C0.66 0.66 1.32 1.32 2 2 C-4.75 6 -4.75 6 -7 6 C-7 4 -7 4 -5.75 2.4375 C-3.7852602 0.82360659 -2.52557477 0.24441046 0 0 Z " fill="#141717" transform="translate(390,404)"/>
<path d="M0 0 C-2.97 2.475 -2.97 2.475 -6 5 C-6.66 4.67 -7.32 4.34 -8 4 C-8 3.34 -8 2.68 -8 2 C-3.61016949 -1.20338983 -3.61016949 -1.20338983 0 0 Z " fill="#8C8E8A" transform="translate(394,632)"/>
<path d="M0 0 C0.99 0.33 1.98 0.66 3 1 C2.67 2.32 2.34 3.64 2 5 C0.35 4.67 -1.3 4.34 -3 4 C-2.01 2.68 -1.02 1.36 0 0 Z " fill="#F2F4ED" transform="translate(614,581)"/>
<path d="M0 0 C0.99 0.33 1.98 0.66 3 1 C3 1.66 3 2.32 3 3 C-0.96 3 -4.92 3 -9 3 C-9 2.67 -9 2.34 -9 2 C-6.94921875 1.77213542 -4.8984375 1.54427083 -2.84765625 1.31640625 C-0.98859771 1.18113386 -0.98859771 1.18113386 0 0 Z " fill="#E3E5E7" transform="translate(233,583)"/>
<path d="M0 0 C0.99 0 1.98 0 3 0 C2.43628586 3.26954202 1.50037734 4.82575883 -1 7 C-1.66 6.67 -2.32 6.34 -3 6 C-2.34 5.34 -1.68 4.68 -1 4 C-0.3574765 1.93125966 -0.3574765 1.93125966 0 0 Z " fill="#EEF2F9" transform="translate(639,558)"/>
<path d="M0 0 C0.66 0.33 1.32 0.66 2 1 C1.67 1.66 1.34 2.32 1 3 C1.99 3.33 2.98 3.66 4 4 C4.33 4.66 4.66 5.32 5 6 C3.02 6 1.04 6 -1 6 C-0.67 4.02 -0.34 2.04 0 0 Z " fill="#C8CBCC" transform="translate(652,529)"/>
<path d="M0 0 C3.65316671 1.24976756 4.78065836 1.67098753 7 5 C3 5 3 5 1.25 3.625 C0 2 0 2 0 0 Z " fill="#E4E7E8" transform="translate(217,514)"/>
<path d="M0 0 C0.66 0.33 1.32 0.66 2 1 C1.195625 1.61875 0.39125 2.2375 -0.4375 2.875 C-3.03874519 4.74164041 -3.03874519 4.74164041 -4 7 C-4.66 6.67 -5.32 6.34 -6 6 C-4.98545548 3.4636387 -4.3146444 2.20648539 -2 0.6875 C-1.34 0.460625 -0.68 0.23375 0 0 Z " fill="#EFF0EF" transform="translate(351,484)"/>
<path d="M0 0 C1 3 1 3 -0.4375 6.1875 C-1.2109375 7.5796875 -1.2109375 7.5796875 -2 9 C-2.66 9 -3.32 9 -4 9 C-3.35455571 5.51460083 -1.89865603 2.97180943 0 0 Z " fill="#E0E1E1" transform="translate(180,470)"/>
<path d="M0 0 C0.66 0.66 1.32 1.32 2 2 C-3.2734375 5.22265625 -3.2734375 5.22265625 -5 6 C-5.66 5.67 -6.32 5.34 -7 5 C-4.69 3.35 -2.38 1.7 0 0 Z " fill="#171D1D" transform="translate(406,459)"/>
<path d="M0 0 C-0.33 0.99 -0.66 1.98 -1 3 C-2.9375 3.625 -2.9375 3.625 -5 4 C-5.99 4.495 -5.99 4.495 -7 5 C-6.625 3.0625 -6.625 3.0625 -6 1 C-4 0 -4 0 0 0 Z " fill="#EAECEC" transform="translate(414,397)"/>
</svg>
